<svg width="24" height="24" viewBox="0 0 24 24" fill="none" xmlns="http://www.w3.org/2000/svg">
<path d="M6.15675 23C2.76173 23 0 20.2383 0 16.8433C0 15.1988 0.640125 13.6524 1.80323 12.4898L13.1465 1.1465C13.3418 0.951168 13.6582 0.951168 13.8535 1.1465C14.0489 1.34182 14.0489 1.65823 13.8535 1.85351L2.51025 13.1968C1.53614 14.1709 0.999984 15.4658 0.999984 16.8433C0.999984 19.6865 3.31345 22 6.1567 22C7.53413 22 8.82905 21.4639 9.8032 20.4897L21.9038 8.38915C22.6108 7.68214 23 6.7422 23 5.74268C23 3.6792 21.3208 2 19.2573 2C18.2578 2 17.3178 2.38915 16.6108 3.09617L5.68214 14.0249C5.24222 14.4649 5.00002 15.0493 5.00002 15.6714C5.00002 16.9556 6.04444 18 7.32862 18C7.9507 18 8.53519 17.7578 8.97511 17.3179L19.1465 7.1465C19.3418 6.95117 19.6582 6.95117 19.8535 7.1465C20.0489 7.34182 20.0489 7.65823 19.8535 7.85351L9.68213 18.0249C9.0532 18.6538 8.21775 19 7.32862 19C5.49319 19 4.00003 17.5069 4.00003 15.6714C4.00003 14.7822 4.3462 13.9468 4.97513 13.3179L15.9038 2.3892C16.7993 1.49318 17.9907 1.00006 19.2573 1.00006C21.8726 1.00001 24 3.12748 24 5.74268C24 7.00929 23.5068 8.20072 22.6109 9.09622L10.5103 21.1968C9.34767 22.3599 7.80127 23 6.15675 23Z" fill="black"/>
</svg>
