<svg xmlns="http://www.w3.org/2000/svg" width="126" height="79" viewBox="0 0 126 79" fill="none">
<path fill-rule="evenodd" clip-rule="evenodd" d="M104.715 61.3067C117.098 57.0638 126 45.3215 126 31.5C126 14.103 111.897 0 94.5 0C77.103 0 63 14.103 63 31.5C63 45.3215 71.9017 57.0638 84.2848 61.3067L94.5 79L104.715 61.3067Z" fill="#817F7D"/>
<path d="M88 22L85 26V40C85 40.5304 85.2107 41.0391 85.5858 41.4142C85.9609 41.7893 86.4696 42 87 42H101C101.53 42 102.039 41.7893 102.414 41.4142C102.789 41.0391 103 40.5304 103 40V26L100 22H88Z" stroke="white" stroke-width="1.5" stroke-linecap="round" stroke-linejoin="round"/>
<path d="M98 30C98 31.0609 97.5786 32.0783 96.8284 32.8284C96.0783 33.5786 95.0609 34 94 34C92.9391 34 91.9217 33.5786 91.1716 32.8284C90.4214 32.0783 90 31.0609 90 30" stroke="white" stroke-width="1.5" stroke-linecap="round" stroke-linejoin="round"/>
<path d="M85 26H103" stroke="white" stroke-width="1.5" stroke-linecap="round" stroke-linejoin="round"/>
<path fill-rule="evenodd" clip-rule="evenodd" d="M41.7152 61.3067C54.0983 57.0638 63 45.3215 63 31.5C63 14.103 48.897 0 31.5 0C14.103 0 0 14.103 0 31.5C0 45.3215 8.90172 57.0638 21.2848 61.3067L31.5 79L41.7152 61.3067Z" fill="#E77827"/>
<path d="M25 22L22 26V40C22 40.5304 22.2107 41.0391 22.5858 41.4142C22.9609 41.7893 23.4696 42 24 42H38C38.5304 42 39.0391 41.7893 39.4142 41.4142C39.7893 41.0391 40 40.5304 40 40V26L37 22H25Z" stroke="white" stroke-width="1.5" stroke-linecap="round" stroke-linejoin="round"/>
<path d="M35 30C35 31.0609 34.5786 32.0783 33.8284 32.8284C33.0783 33.5786 32.0609 34 31 34C29.9391 34 28.9217 33.5786 28.1716 32.8284C27.4214 32.0783 27 31.0609 27 30" stroke="white" stroke-width="1.5" stroke-linecap="round" stroke-linejoin="round"/>
<path d="M22 26H40" stroke="white" stroke-width="1.5" stroke-linecap="round" stroke-linejoin="round"/>
</svg>