<svg xmlns="http://www.w3.org/2000/svg"><symbol id="arrow-bottom-right" viewBox="0 0 23 23">
    <path fill-rule="evenodd" clip-rule="evenodd" d="M20.824 2v18.824H2v-1.5h16.264L3.434 4.494l1.06-1.06 14.83 14.83V2h1.5z"/>
</symbol><symbol id="arrow-drop-down" viewBox="0 0 17 16">
    <path d="M8.207 11l-5-5h10l-5 5z"/>
</symbol><symbol id="arrow-left-long" viewBox="0 0 23 14">
    <path d="M23 7H2m0 0l6 6M2 7l6-6" stroke-width="2"/>
</symbol><symbol id="arrow-left" viewBox="0 0 22 25">
    <path d="M21.672 12.26H2.026m0 0l11.02 11.021m-11.02-11.02L13.046 1.24" stroke-width="2"/>
</symbol><symbol id="arrow-right-long" viewBox="0 0 23 14">
    <path d="M0 7h21m0 0l-6-6m6 6l-6 6" stroke-width="2"/>
</symbol><symbol id="arrow-right" viewBox="0 0 22 25">
    <path d="M.328 12.74h19.646m0 0L8.954 1.718m11.02 11.02L8.954 23.76" stroke-width="2"/>
</symbol><symbol id="arrow-up-long" viewBox="0 0 18 46">
    <path d="M8.916 46V1.89m0 0L1 9.805M8.916 1.89l7.915 7.915" stroke-width="1.5"/>
</symbol><symbol id="cart" viewBox="0 0 20 20">
    <g opacity=".8" stroke-width="1.5" stroke-linecap="round" stroke-linejoin="round">
        <path d="M16.38 19.002a.81.81 0 1 0 0-1.62.81.81 0 0 0 0 1.62zM7.481 19.002a.81.81 0 1 0 0-1.62.81.81 0 0 0 0 1.62z"/>
        <path d="M1 2h3.238l2.17 10.84a1.62 1.62 0 0 0 1.619 1.303h7.868a1.62 1.62 0 0 0 1.62-1.304l1.294-6.791H5.049"/>
    </g>
</symbol><symbol id="chevron" viewBox="0 0 12 13">
    <path d="M10.8 4.7L6 9.5 1.2 4.7"/>
</symbol><symbol id="close" viewBox="0 0 30 30">
    <path stroke-width="1.5" d="M6.389 5.654L24.836 24.1M5.698 24.1L24.144 5.654"/>
</symbol><symbol id="copy" viewBox="0 0 18 22">
    <rect x="2" y="2" width="10" height="14" rx="2" stroke-width="1.5"/>
    <path d="M14.501 6.402a2.999 2.999 0 0 1 1.5 2.599v8a3 3 0 0 1-3 3h-4c-1.11 0-2.08-.603-2.599-1.5" stroke-width="1.5" stroke-linecap="round"/>
</symbol><symbol id="icon-close" viewBox="0 0 19 19">
    <path d="M18.58.435a1.436 1.436 0 0 0-2.033 0L9.5 7.468 2.453.421A1.437 1.437 0 1 0 .42 2.453L7.468 9.5.421 16.547a1.437 1.437 0 1 0 2.032 2.032L9.5 11.532l7.047 7.047a1.437 1.437 0 0 0 2.032-2.032L11.532 9.5l7.047-7.047a1.444 1.444 0 0 0 0-2.018z"/>
</symbol><symbol id="logo-omni" viewBox="0 0 32 13">
    <g>
        <path d="M9.012 4.635c0 .932-.17 1.733-.51 2.404-.342.667-.81 1.182-1.403 1.542-.59.358-1.263.537-2.016.537-.755 0-1.43-.179-2.024-.537-.59-.36-1.057-.876-1.397-1.547-.341-.67-.512-1.47-.512-2.399 0-.932.17-1.731.512-2.399.34-.67.806-1.185 1.397-1.542C3.653.333 4.328.152 5.083.152c.753 0 1.425.18 2.016.542.594.357 1.061.872 1.402 1.542.341.668.511 1.467.511 2.4zm-1.304 0c0-.71-.115-1.308-.345-1.794-.227-.488-.54-.858-.937-1.108a2.436 2.436 0 0 0-1.343-.379c-.502 0-.951.126-1.346.38-.395.25-.708.619-.938 1.107-.227.486-.34 1.084-.34 1.794s.113 1.31.34 1.799c.23.485.543.855.938 1.108.395.25.844.375 1.346.375.5 0 .948-.125 1.343-.375.398-.253.71-.623.937-1.108.23-.489.345-1.088.345-1.799zM10.174.272h1.598l2.778 6.784h.103L17.43.272h1.598v8.727h-1.253V2.684h-.08l-2.574 6.302h-1.04L11.508 2.68h-.081V9h-1.253V.272zM27.508.272v8.727h-1.21l-4.437-6.4h-.08v6.4h-1.317V.272h1.218l4.44 6.409h.082V.27h1.304zM30.265.272v8.727h-1.317V.272h1.317zM.473 11.385h30.751v.819H.473v-.819z"/>
    </g>
</symbol><symbol id="minus" viewBox="0 0 13 1">
    <path d="M0 .5h13"/>
</symbol><symbol id="plus" viewBox="0 0 13 14">
    <path d="M0 7h13M6.5.5v13"/>
</symbol><symbol id="search" viewBox="0 0 20 20">
    <g opacity=".8" stroke-width="1.5" stroke-linejoin="round">
        <path d="M9.222 15.944a6.222 6.222 0 1 0 0-12.444 6.222 6.222 0 0 0 0 12.444z" stroke-linecap="round"/>
        <path d="M16.993 17.5l-3.384-3.383" stroke-linecap="square"/>
    </g>
</symbol>
<symbol id="share" viewBox="0 0 21 22">
    <circle cx="6" cy="11" r="5.25" stroke-width="1.5"/>
    <circle cx="17" cy="4" r="3.25" stroke-width="1.5"/>
    <circle cx="17" cy="18" r="3.25" stroke-width="1.5"/>
    <path d="M14 6l-3.5 2.5M14.002 16.5l-4-2.5" stroke-width="1.5"/>
</symbol>
<symbol id="del-item" viewBox="0 0 48 54">
    <path d="M45.3333 8.32812C46.0406 8.32812 46.7189 8.60908 47.219 9.10917C47.7191 9.60927 48 10.2875 48 10.9948C48 11.702 47.7191 12.3803 47.219 12.8804C46.7189 13.3805 46.0406 13.6615 45.3333 13.6615H42.6667L42.6587 13.8508L40.1707 48.7068C40.0749 50.0523 39.4728 51.3116 38.4856 52.231C37.4985 53.1503 36.1996 53.6615 34.8507 53.6615H13.1467C11.7977 53.6615 10.4988 53.1503 9.51169 52.231C8.52454 51.3116 7.92244 50.0523 7.82667 48.7068L5.33867 13.8535C5.33462 13.7895 5.33284 13.7255 5.33333 13.6615H2.66667C1.95942 13.6615 1.28115 13.3805 0.781048 12.8804C0.280951 12.3803 0 11.702 0 10.9948C0 10.2875 0.280951 9.60927 0.781048 9.10917C1.28115 8.60908 1.95942 8.32812 2.66667 8.32812H45.3333ZM37.3253 13.6615H10.6747L13.1493 48.3281H34.8507L37.3253 13.6615ZM29.3333 0.328125C30.0406 0.328125 30.7189 0.609076 31.219 1.10917C31.719 1.60927 32 2.28755 32 2.99479C32 3.70204 31.719 4.38031 31.219 4.88041C30.7189 5.38051 30.0406 5.66146 29.3333 5.66146H18.6667C17.9594 5.66146 17.2811 5.38051 16.781 4.88041C16.281 4.38031 16 3.70204 16 2.99479C16 2.28755 16.281 1.60927 16.781 1.10917C17.2811 0.609076 17.9594 0.328125 18.6667 0.328125H29.3333Z"/>
</symbol>
<symbol id="star" viewBox="0 0 30 28">
    <path d="M15 0L18.3327 10.4129L29.2658 10.3647L20.3925 16.7521L23.8168 27.1353L15 20.67L6.18322 27.1353L9.60751 16.7521L0.734152 10.3647L11.6673 10.4129L15 0Z"/>
</symbol>
<symbol id="restart" viewBox="0 0 21 21">
    <path d="M15.227 2.18088C10.81 -0.189117 5.415 1.10388 2.5 5.00088V2.50088C2.5 2.36827 2.44732 2.2411 2.35355 2.14733C2.25979 2.05356 2.13261 2.00088 2 2.00088C1.86739 2.00088 1.74021 2.05356 1.64645 2.14733C1.55268 2.2411 1.5 2.36827 1.5 2.50088V6.50088C1.5 6.63349 1.55268 6.76067 1.64645 6.85444C1.74021 6.9482 1.86739 7.00088 2 7.00088H6C6.13261 7.00088 6.25979 6.9482 6.35355 6.85444C6.44732 6.76067 6.5 6.63349 6.5 6.50088C6.5 6.36827 6.44732 6.2411 6.35355 6.14733C6.25979 6.05356 6.13261 6.00088 6 6.00088H3.022C3.83453 4.77751 4.9355 3.77277 6.22788 3.07522C7.52027 2.37767 8.9644 2.00872 10.433 2.00088C12.2065 1.99417 13.9422 2.51353 15.4206 3.49329C16.8989 4.47305 18.0535 5.86919 18.7384 7.50517C19.4233 9.14114 19.6076 10.9435 19.2681 12.6842C18.9287 14.425 18.0806 16.026 16.8312 17.2847C15.5818 18.5435 13.9872 19.4035 12.2491 19.7559C10.5109 20.1084 8.70724 19.9375 7.06619 19.2649C5.42514 18.5923 4.02041 17.4482 3.02963 15.9772C2.03886 14.5062 1.50654 12.7744 1.5 11.0009C1.5 10.8409 1.5 10.6889 1.509 10.5289C1.51278 10.4618 1.503 10.3947 1.48026 10.3315C1.45752 10.2683 1.42227 10.2103 1.37663 10.161C1.33099 10.1118 1.27589 10.0722 1.21462 10.0447C1.15334 10.0171 1.08715 10.0023 1.02 10.0009C0.75 9.99088 0.52 10.2009 0.51 10.4729C0.5 10.6529 0.5 10.8209 0.5 11.0009C0.506 16.5209 4.98 20.9949 10.5 21.0009C12.3079 20.9999 14.0817 20.5091 15.633 19.5807C17.1842 18.6522 18.4549 17.3208 19.31 15.7279C21.924 10.8599 20.096 4.79488 15.227 2.18088ZM10.5 7.00088C10.3674 7.00088 10.2402 7.05356 10.1464 7.14733C10.0527 7.2411 10 7.36827 10 7.50088V11.0009C10 11.1335 10.0527 11.2607 10.1464 11.3544C10.2402 11.4482 10.3674 11.5009 10.5 11.5009H13C13.1326 11.5009 13.2598 11.4482 13.3536 11.3544C13.4473 11.2607 13.5 11.1335 13.5 11.0009C13.5 10.8683 13.4473 10.7411 13.3536 10.6473C13.2598 10.5536 13.1326 10.5009 13 10.5009H11V7.50088C11 7.36827 10.9473 7.2411 10.8536 7.14733C10.7598 7.05356 10.6326 7.00088 10.5 7.00088Z"/>
</symbol>
</svg>